# xmcd
#
# Track frame offsets:
#	150
#	13731
#	30800
#	38949
#	51389
#	70506
#	88169
#
# Disc length: 1355 seconds
#
# Revision: 0
# Processed by: cddbd v1.5.1PL2 Copyright (c) Steve Scherf et al.
# Submitted via: dBpowerAMP V4.0
#
DISCID=50054907
DTITLE=R. Kelly - Trapped in the Closet Parts 6-12
DYEAR=2005
DGENRE=R&B
TTITLE0=Trapped in the Closet Part 6
TTITLE1=Trapped in the Closet Part 7
TTITLE2=Trapped in the Closet Part 9
TTITLE3=Trapped in the Closet Part 10
TTITLE4=Trapped in the Closet Part 11
TTITLE5=Trapped in the Closet Part 12
TTITLE6=Trapped in the Closet Part 8
EXTD=
EXTT0=
EXTT1=
EXTT2=
EXTT3=
EXTT4=
EXTT5=
EXTT6=
PLAYORDER=
